<svg width="16" height="17" viewBox="0 0 16 17" fill="none" xmlns="http://www.w3.org/2000/svg">
<path d="M8.5 6.5C8.5 6.22386 8.27613 6 8 6C7.72387 6 7.5 6.22386 7.5 6.5V8H6C5.72386 8 5.5 8.22387 5.5 8.5C5.5 8.77613 5.72386 9 6 9H7.5V10.5C7.5 10.7761 7.72387 11 8 11C8.27613 11 8.5 10.7761 8.5 10.5V9H10C10.2761 9 10.5 8.77613 10.5 8.5C10.5 8.22387 10.2761 8 10 8H8.5V6.5Z" fill="#14489F"/>
<path fill-rule="evenodd" clip-rule="evenodd" d="M10.9757 2.08249C10.2143 1.99999 9.25453 1.99999 8.03013 2H7.96987C6.74547 1.99999 5.78574 1.99999 5.02432 2.08249C4.24729 2.16667 3.61771 2.34155 3.08016 2.7321C2.75473 2.96854 2.46854 3.25473 2.2321 3.58016C1.84155 4.11771 1.66667 4.74729 1.58249 5.52432C1.49999 6.28574 1.49999 7.24547 1.5 8.46987V8.53013C1.49999 9.75453 1.49999 10.7143 1.58249 11.4757C1.66667 12.2527 1.84155 12.8823 2.2321 13.4199C2.46854 13.7453 2.75473 14.0315 3.08016 14.2679C3.61771 14.6585 4.24729 14.8333 5.02432 14.9175C5.78573 15 6.74547 15 7.9698 15H8.0302C9.25453 15 10.2143 15 10.9757 14.9175C11.7527 14.8333 12.3823 14.6585 12.9199 14.2679C13.2453 14.0315 13.5315 13.7453 13.7679 13.4199C14.1585 12.8823 14.3333 12.2527 14.4175 11.4757C14.5 10.7143 14.5 9.75453 14.5 8.5302V8.4698C14.5 7.24547 14.5 6.28573 14.4175 5.52432C14.3333 4.74729 14.1585 4.11771 13.7679 3.58016C13.5315 3.25473 13.2453 2.96854 12.9199 2.7321C12.3823 2.34155 11.7527 2.16667 10.9757 2.08249ZM3.66794 3.54112C4.00661 3.29506 4.44009 3.15163 5.13203 3.07667C5.83333 3.00069 6.73893 3 8 3C9.26107 3 10.1667 3.00069 10.868 3.07667C11.5599 3.15163 11.9934 3.29506 12.3321 3.54112C12.5726 3.71588 12.7841 3.92741 12.9589 4.16794C13.2049 4.50661 13.3483 4.94009 13.4233 5.63203C13.4993 6.33333 13.5 7.23893 13.5 8.5C13.5 9.76107 13.4993 10.6667 13.4233 11.368C13.3483 12.0599 13.2049 12.4934 12.9589 12.8321C12.7841 13.0726 12.5726 13.2841 12.3321 13.4589C11.9934 13.7049 11.5599 13.8483 10.868 13.9233C10.1667 13.9993 9.26107 14 8 14C6.73893 14 5.83333 13.9993 5.13203 13.9233C4.44009 13.8483 4.00661 13.7049 3.66794 13.4589C3.42741 13.2841 3.21588 13.0726 3.04112 12.8321C2.79506 12.4934 2.65163 12.0599 2.57667 11.368C2.50069 10.6667 2.5 9.76107 2.5 8.5C2.5 7.23893 2.50069 6.33333 2.57667 5.63203C2.65163 4.94009 2.79506 4.50661 3.04112 4.16794C3.21588 3.92741 3.42741 3.71588 3.66794 3.54112Z" fill="#14489F"/>
</svg>
