<svg width="14" height="14" viewBox="0 0 14 14" fill="none" xmlns="http://www.w3.org/2000/svg">
<path d="M10.2097 4.95703C10.5319 4.95703 10.793 5.2182 10.793 5.54036C10.793 5.8395 10.5678 6.08607 10.2777 6.11979L10.2097 6.1237C9.88225 6.1237 9.62109 5.86254 9.62109 5.54036C9.62109 5.24121 9.84626 4.99465 10.1364 4.96096L10.2097 4.95703Z" fill="white"/>
<path fill-rule="evenodd" clip-rule="evenodd" d="M4.70703 7.6591C4.70703 6.39315 5.73299 5.36719 6.99895 5.36719C8.2649 5.36719 9.29086 6.39315 9.29086 7.6591C9.29086 8.92505 8.2649 9.95102 6.99895 9.95102C5.73299 9.95102 4.70703 8.92505 4.70703 7.6591ZM8.41586 7.6591C8.41586 6.87639 7.78166 6.24219 6.99895 6.24219C6.21623 6.24219 5.58203 6.87639 5.58203 7.6591C5.58203 8.44182 6.21623 9.07602 6.99895 9.07602C7.78166 9.07602 8.41586 8.44182 8.41586 7.6591Z" fill="white"/>
<path fill-rule="evenodd" clip-rule="evenodd" d="M4.19574 2.81849C4.43021 2.39235 4.68529 2.10749 5.06378 1.95683C5.75737 1.68105 8.24142 1.68105 8.93448 1.95689C9.31277 2.10746 9.56792 2.39228 9.80259 2.81833L10.0664 3.32417C10.0724 3.33419 10.078 3.343 10.0829 3.35059L10.1053 3.38122C10.2255 3.51218 10.4267 3.59129 10.5594 3.59129C11.8148 3.59129 12.8327 4.60897 12.8327 5.86395V9.24437C12.8327 10.8451 11.5343 12.1435 9.93349 12.1435H4.06518C2.464 12.1435 1.16602 10.8453 1.16602 9.24437V5.86395C1.16602 4.60897 2.18392 3.59129 3.43927 3.59129C3.57155 3.59129 3.77298 3.51206 3.89336 3.38122C3.89576 3.3786 3.8989 3.3747 3.90269 3.36953L3.9327 3.32351L4.19574 2.81849ZM9.03615 3.24047C8.89032 2.97573 8.75854 2.82864 8.6109 2.76986L8.54131 2.74672C7.94094 2.57704 5.85278 2.58475 5.38723 2.76986C5.23963 2.82861 5.108 2.97561 4.96236 3.2403L4.73786 3.67436L4.68261 3.77436C4.63648 3.85109 4.59034 3.91585 4.53765 3.97325C4.24222 4.29438 3.80516 4.46629 3.43927 4.46629L3.34355 4.46952C2.61604 4.51871 2.04102 5.12442 2.04102 5.86395V9.24437C2.04102 10.3621 2.94728 11.2685 4.06518 11.2685H9.93349C11.051 11.2685 11.9577 10.3619 11.9577 9.24437V5.86395C11.9577 5.09226 11.3316 4.46629 10.5594 4.46629L10.4579 4.46205C10.1146 4.4338 9.72892 4.26514 9.4607 3.97286C9.40872 3.91622 9.36282 3.85192 9.31697 3.77584C9.31038 3.76493 9.30221 3.75056 9.29282 3.73356L9.22509 3.60654L9.03615 3.24047Z" fill="white"/>
</svg>
