<svg width="14" height="15" viewBox="0 0 14 15" fill="none" xmlns="http://www.w3.org/2000/svg">
<path fill-rule="evenodd" clip-rule="evenodd" d="M5.28232 6.83455C5.55709 6.80708 5.8021 7.00755 5.82956 7.28235L6.1629 10.6157C6.19043 10.8904 5.9899 11.1355 5.71516 11.1629C5.44038 11.1904 5.19536 10.9899 5.16788 10.7151L4.83455 7.38181C4.80707 7.10708 5.00754 6.86201 5.28232 6.83455Z" fill="white"/>
<path fill-rule="evenodd" clip-rule="evenodd" d="M8.71515 6.83455C8.98988 6.86201 9.19035 7.10708 9.16288 7.38181L8.82955 10.7151C8.80208 10.9899 8.55708 11.1904 8.28228 11.1629C8.00755 11.1355 7.80708 10.8904 7.83455 10.6157L8.16788 7.28235C8.19535 7.00755 8.44035 6.80708 8.71515 6.83455Z" fill="white"/>
<path fill-rule="evenodd" clip-rule="evenodd" d="M5.74855 0.832044H8.00288C8.14715 0.831951 8.27282 0.831871 8.39148 0.850824C8.86035 0.925691 9.26608 1.21813 9.48535 1.63926C9.54088 1.74585 9.58055 1.8651 9.62608 2.00199L9.70048 2.22526C9.71308 2.26305 9.71668 2.27375 9.71975 2.28218C9.83648 2.60492 10.1391 2.82309 10.4823 2.83179C10.4913 2.83202 10.5024 2.83206 10.5424 2.83206H12.5424C12.8186 2.83206 13.0424 3.05591 13.0424 3.33206C13.0424 3.6082 12.8186 3.83206 12.5424 3.83206H1.20898C0.932844 3.83206 0.708984 3.6082 0.708984 3.33206C0.708984 3.05591 0.932844 2.83206 1.20898 2.83206H3.20904C3.24907 2.83206 3.26012 2.83202 3.26914 2.83179C3.61224 2.82309 3.91492 2.60494 4.03167 2.28219C4.03474 2.2737 4.03827 2.26324 4.05093 2.22526L4.12533 2.002C4.17086 1.86512 4.21054 1.74585 4.26604 1.63926C4.48534 1.21813 4.89107 0.925691 5.35994 0.850824C5.47862 0.831871 5.6043 0.831951 5.74855 0.832044ZM4.88108 2.83206C4.91542 2.76471 4.94586 2.69472 4.97204 2.62235C4.97998 2.60037 4.98778 2.57698 4.9978 2.54692L5.06434 2.34731C5.12512 2.16497 5.13911 2.12778 5.15299 2.10112C5.22609 1.96074 5.36134 1.86327 5.51762 1.83831C5.54731 1.83357 5.587 1.83206 5.77922 1.83206H7.97222C8.16442 1.83206 8.20408 1.83357 8.23382 1.83831C8.39008 1.86327 8.52535 1.96074 8.59842 2.10112C8.61228 2.12778 8.62628 2.16496 8.68708 2.34731L8.75355 2.5468L8.77942 2.62236C8.80555 2.69473 8.83602 2.76471 8.87035 2.83206H4.88108Z" fill="white"/>
<path fill-rule="evenodd" clip-rule="evenodd" d="M2.41012 5.16519C2.68565 5.14682 2.9239 5.35529 2.94227 5.63082L3.2489 10.2302C3.3088 11.1288 3.35149 11.754 3.4452 12.2244C3.5361 12.6807 3.66299 12.9223 3.84527 13.0928C4.02754 13.2633 4.27698 13.3739 4.73831 13.4342C5.21391 13.4964 5.8406 13.4974 6.74113 13.4974H7.25673C8.15727 13.4974 8.78393 13.4964 9.25953 13.4342C9.72087 13.3739 9.97033 13.2633 10.1526 13.0928C10.3349 12.9223 10.4618 12.6807 10.5527 12.2244C10.6464 11.754 10.6891 11.1288 10.749 10.2302L11.0556 5.63082C11.0739 5.35529 11.3122 5.14682 11.5877 5.16519C11.8633 5.18356 12.0717 5.42181 12.0534 5.69734L11.7444 10.3318C11.6874 11.187 11.6414 11.8777 11.5334 12.4198C11.4211 12.9833 11.2302 13.4541 10.8358 13.823C10.4414 14.192 9.959 14.3512 9.38927 14.4257C8.8412 14.4974 8.14893 14.4974 7.29187 14.4974H6.706C5.84893 14.4974 5.15663 14.4974 4.60861 14.4257C4.03884 14.3512 3.55647 14.192 3.16208 13.823C2.76768 13.4541 2.57673 12.9833 2.46447 12.4198C2.35649 11.8777 2.31045 11.187 2.25345 10.3318L1.94449 5.69734C1.92611 5.42181 2.13459 5.18356 2.41012 5.16519Z" fill="white"/>
</svg>
