<svg width="16" height="16" viewBox="0 0 16 16" fill="none" xmlns="http://www.w3.org/2000/svg">
<path d="M14.3013 14.7183H9.10525C8.76792 14.7183 8.49414 14.4445 8.49414 14.1072C8.49414 13.7699 8.76792 13.4961 9.10525 13.4961H14.3013C14.6387 13.4961 14.9124 13.7699 14.9124 14.1072C14.9124 14.4445 14.6387 14.7183 14.3013 14.7183Z" fill="#00A944"/>
<path fill-rule="evenodd" clip-rule="evenodd" d="M11.3064 7.34096L12.3063 6.00882C12.8018 5.34881 13.0104 4.53564 12.8938 3.71837C12.7773 2.90111 12.3503 2.17919 11.6903 1.68378C10.3288 0.662001 8.3879 0.936593 7.36531 2.29978L1.86367 9.62905C0.224266 11.8152 1.68278 14.4193 1.74553 14.5293C1.83027 14.6768 1.97286 14.7819 2.13908 14.8202C2.18634 14.8316 2.64264 14.9327 3.27901 14.9327C4.30812 14.9327 5.80575 14.6695 6.80472 13.3381L11.1791 7.51053C11.2046 7.48657 11.2283 7.46017 11.2499 7.43133C11.2717 7.4024 11.2905 7.37217 11.3064 7.34096ZM2.68501 13.6722C3.32138 13.7496 4.92656 13.8042 5.82693 12.6039L9.89784 7.18069L6.91179 4.93874L2.84064 10.3624C1.92234 11.5879 2.42753 13.0879 2.68501 13.6722ZM7.64528 3.96167L10.6317 6.20295L11.3286 5.27467C11.947 4.45171 11.78 3.27919 10.957 2.66074C10.1332 2.04393 8.9599 2.21097 8.34228 3.03311L7.64528 3.96167Z" fill="#00A944"/>
</svg>
