<svg width="26" height="26" viewBox="0 0 26 26" fill="none" xmlns="http://www.w3.org/2000/svg">
<path d="M16.5002 25.5404H9.50016C3.16516 25.5404 0.458496 22.8337 0.458496 16.4987V9.4987C0.458496 3.1637 3.16516 0.457031 9.50016 0.457031H15.3335C15.8118 0.457031 16.2085 0.853698 16.2085 1.33203C16.2085 1.81036 15.8118 2.20703 15.3335 2.20703H9.50016C4.12183 2.20703 2.2085 4.12036 2.2085 9.4987V16.4987C2.2085 21.877 4.12183 23.7904 9.50016 23.7904H16.5002C21.8785 23.7904 23.7918 21.877 23.7918 16.4987V10.6654C23.7918 10.187 24.1885 9.79037 24.6668 9.79037C25.1452 9.79037 25.5418 10.187 25.5418 10.6654V16.4987C25.5418 22.8337 22.8352 25.5404 16.5002 25.5404Z" fill="#BBBBBB"/>
<path d="M24.6668 11.5387H20.0002C16.0102 11.5387 14.4585 9.98698 14.4585 5.99698V1.33031C14.4585 0.980309 14.6685 0.653642 14.9952 0.525309C15.3218 0.385309 15.6952 0.466976 15.9518 0.711976L25.2852 10.0453C25.5302 10.2903 25.6118 10.6753 25.4718 11.002C25.3318 11.3287 25.0168 11.5387 24.6668 11.5387ZM16.2085 3.44198V5.99698C16.2085 9.00698 16.9902 9.78864 20.0002 9.78864H22.5552L16.2085 3.44198Z" fill="#BBBBBB"/>
</svg>
