<svg width="18" height="18" viewBox="0 0 18 18" fill="none" xmlns="http://www.w3.org/2000/svg">
<path d="M2.96973 15.4109H13.2755H13.6505C14.0973 15.4093 14.5317 15.2633 14.8889 14.9948C15.2461 14.7262 15.507 14.3495 15.6327 13.9207L17.0165 9.12669C17.0998 8.84453 17.1212 8.54771 17.0792 8.25651C17.0373 7.96532 16.9329 7.68662 16.7733 7.43946C16.6138 7.1923 16.4027 6.9825 16.1546 6.82441C15.9065 6.66631 15.6272 6.56365 15.3357 6.52344V6.14844C15.3351 5.602 15.118 5.07808 14.7318 4.69148C14.3456 4.30488 13.8219 4.08713 13.2755 4.08594H8.00973C7.76913 4.08647 7.53718 3.99621 7.36023 3.83319L6.63423 3.15219C6.25283 2.78896 5.74641 2.58624 5.21973 2.58594H2.96973C2.4229 2.58653 1.89864 2.80402 1.51198 3.19069C1.12531 3.57735 0.907822 4.10161 0.907227 4.64844V13.3484C0.907822 13.8953 1.12531 14.4195 1.51198 14.8062C1.89864 15.1929 2.4229 15.4103 2.96973 15.4109ZM15.0297 7.61544C15.1752 7.61559 15.3187 7.64958 15.4488 7.71472C15.5789 7.77985 15.692 7.87435 15.7793 7.99074C15.8666 8.10713 15.9257 8.24223 15.9518 8.38536C15.9779 8.52849 15.9703 8.67572 15.9297 8.81544L14.5505 13.6064C14.4929 13.8007 14.3743 13.9713 14.2122 14.0929C14.0501 14.2145 13.8531 14.2806 13.6505 14.2814H3.46248C3.31693 14.2814 3.17339 14.2476 3.04321 14.1825C2.91304 14.1174 2.7998 14.0229 2.71248 13.9064C2.62515 13.79 2.56613 13.6548 2.5401 13.5116C2.51406 13.3684 2.52172 13.2212 2.56248 13.0814L3.94548 8.29344C4.00292 8.09908 4.12151 7.92843 4.28365 7.80683C4.44578 7.68523 4.64281 7.61916 4.84548 7.61844L15.0297 7.61544ZM2.03223 4.64844C2.03262 4.39992 2.13152 4.16169 2.30725 3.98596C2.48298 3.81023 2.72121 3.71133 2.96973 3.71094H5.21973C5.45924 3.71185 5.68918 3.80506 5.86173 3.97119L6.59373 4.65744C6.97936 5.01339 7.48493 5.21101 8.00973 5.21094H13.2755C13.5241 5.21114 13.7624 5.30997 13.9382 5.48574C14.1139 5.66152 14.2128 5.89986 14.213 6.14844V6.49044H4.84623C4.39926 6.49215 3.96481 6.63823 3.60761 6.90691C3.25041 7.17558 2.98958 7.55248 2.86398 7.98144L2.03223 10.8637V4.64844Z" fill="white"/>
</svg>
