<svg width="21" height="21" viewBox="0 0 21 21" fill="none" xmlns="http://www.w3.org/2000/svg">
<path d="M11.1562 7.875C11.1562 7.51257 10.8624 7.21875 10.5 7.21875C10.1376 7.21875 9.84375 7.51257 9.84375 7.875V9.84375H7.875C7.51257 9.84375 7.21875 10.1376 7.21875 10.5C7.21875 10.8624 7.51257 11.1562 7.875 11.1562H9.84375V13.125C9.84375 13.4874 10.1376 13.7812 10.5 13.7812C10.8624 13.7812 11.1562 13.4874 11.1562 13.125V11.1562H13.125C13.4874 11.1562 13.7812 10.8624 13.7812 10.5C13.7812 10.1376 13.4874 9.84375 13.125 9.84375H11.1562V7.875Z" fill="white"/>
<path fill-rule="evenodd" clip-rule="evenodd" d="M14.4056 2.07701C13.4062 1.96874 12.1466 1.96874 10.5396 1.96875H10.4604C8.85342 1.96874 7.59378 1.96874 6.59442 2.07701C5.57457 2.18751 4.74824 2.41703 4.04271 2.92963C3.61558 3.23996 3.23996 3.61558 2.92963 4.04271C2.41703 4.74824 2.18751 5.57457 2.07701 6.59442C1.96874 7.59378 1.96874 8.85342 1.96875 10.4604V10.5396C1.96874 12.1466 1.96874 13.4062 2.07701 14.4056C2.18751 15.4255 2.41703 16.2517 2.92963 16.9573C3.23996 17.3844 3.61558 17.76 4.04271 18.0703C4.74824 18.583 5.57457 18.8125 6.59442 18.923C7.59377 19.0312 8.85343 19.0312 10.4604 19.0312H10.5396C12.1466 19.0312 13.4062 19.0312 14.4056 18.923C15.4255 18.8125 16.2517 18.583 16.9573 18.0703C17.3844 17.76 17.76 17.3844 18.0703 16.9573C18.583 16.2517 18.8125 15.4255 18.923 14.4056C19.0312 13.4062 19.0312 12.1466 19.0312 10.5396V10.4604C19.0312 8.85343 19.0312 7.59377 18.923 6.59442C18.8125 5.57457 18.583 4.74824 18.0703 4.04271C17.76 3.61558 17.3844 3.23996 16.9573 2.92963C16.2517 2.41703 15.4255 2.18751 14.4056 2.07701ZM4.81417 3.99147C5.25868 3.66852 5.82761 3.48027 6.73579 3.38188C7.65624 3.28215 8.84485 3.28125 10.5 3.28125C12.1552 3.28125 13.3438 3.28215 14.2642 3.38188C15.1724 3.48027 15.7413 3.66852 16.1858 3.99147C16.5015 4.22084 16.7792 4.49847 17.0085 4.81417C17.3315 5.25868 17.5197 5.82761 17.6181 6.73579C17.7179 7.65624 17.7188 8.84485 17.7188 10.5C17.7188 12.1552 17.7179 13.3438 17.6181 14.2642C17.5197 15.1724 17.3315 15.7413 17.0085 16.1858C16.7792 16.5015 16.5015 16.7792 16.1858 17.0085C15.7413 17.3315 15.1724 17.5197 14.2642 17.6181C13.3438 17.7179 12.1552 17.7188 10.5 17.7188C8.84485 17.7188 7.65624 17.7179 6.73579 17.6181C5.82761 17.5197 5.25868 17.3315 4.81417 17.0085C4.49847 16.7792 4.22084 16.5015 3.99147 16.1858C3.66852 15.7413 3.48027 15.1724 3.38188 14.2642C3.28215 13.3438 3.28125 12.1552 3.28125 10.5C3.28125 8.84485 3.28215 7.65624 3.38188 6.73579C3.48027 5.82761 3.66852 5.25868 3.99147 4.81417C4.22084 4.49847 4.49847 4.22084 4.81417 3.99147Z" fill="white"/>
</svg>
