<svg width="19" height="19" viewBox="0 0 19 19" fill="none" xmlns="http://www.w3.org/2000/svg">
<path d="M9.5 13.5122C9.17225 13.5122 8.90625 13.2462 8.90625 12.9184V11.1602C8.90625 10.8324 9.17225 10.5664 9.5 10.5664C9.82775 10.5664 10.0938 10.8324 10.0938 11.1602V12.9184C10.0938 13.2462 9.82775 13.5122 9.5 13.5122Z" fill="#535353"/>
<path fill-rule="evenodd" clip-rule="evenodd" d="M13.7051 7.01722C15.4449 7.80968 16.1596 9.35142 16.1596 11.902C16.1596 15.9545 14.3554 17.4611 9.50164 17.4611C4.64796 17.4611 2.84375 15.9545 2.84375 11.902C2.84375 9.35173 3.55825 7.81005 5.29761 7.0175V5.67874C5.33482 3.37974 7.15723 1.56445 9.44591 1.53516C10.5843 1.5407 11.6325 1.94524 12.436 2.72899C13.2412 3.51432 13.6916 4.56407 13.7051 5.68745V7.01722ZM12.8313 7.91953C12.8808 7.94605 12.9345 7.96576 12.991 7.9774C14.4685 8.54708 14.9721 9.72991 14.9721 11.902C14.9721 15.2935 13.745 16.2736 9.50164 16.2736C5.25833 16.2736 4.03125 15.2935 4.03125 11.902C4.03125 9.72952 4.53499 8.54669 6.01304 7.97708C6.0687 7.96552 6.12152 7.94613 6.17029 7.92008C6.98372 7.64258 8.07134 7.53122 9.50164 7.53122C10.931 7.53122 12.0181 7.64242 12.8313 7.91953ZM6.48511 6.62552V5.68824C6.51123 4.04632 7.81827 2.74324 9.46174 2.72266C10.2819 2.71711 11.0308 3.01716 11.608 3.58003C12.1851 4.14291 12.5081 4.89578 12.5176 5.69457V6.62537C11.6805 6.43263 10.6811 6.34372 9.50164 6.34372C8.32198 6.34372 7.3224 6.43267 6.48511 6.62552Z" fill="#535353"/>
</svg>
