<svg width="68" height="73" viewBox="0 0 68 73" fill="none" xmlns="http://www.w3.org/2000/svg">
<g filter="url(#filter0_d_224_15392)">
<path fill-rule="evenodd" clip-rule="evenodd" d="M27.9589 29.0565C29.0065 28.9518 29.9406 29.716 30.0453 30.7637L31.3161 43.472C31.4211 44.5195 30.6566 45.4538 29.6091 45.5585C28.5615 45.6632 27.6274 44.8989 27.5226 43.8513L26.2518 31.1429C26.147 30.0955 26.9113 29.1612 27.9589 29.0565Z" fill="white"/>
<path fill-rule="evenodd" clip-rule="evenodd" d="M41.0466 29.0565C42.094 29.1612 42.8583 30.0955 42.7536 31.1429L41.4827 43.8513C41.378 44.8989 40.4439 45.6632 39.3963 45.5585C38.3488 45.4538 37.5846 44.5195 37.6893 43.472L38.9601 30.7637C39.0648 29.716 39.9989 28.9518 41.0466 29.0565Z" fill="white"/>
<path fill-rule="evenodd" clip-rule="evenodd" d="M29.7329 6.17192H38.3275C38.8775 6.17157 39.3566 6.17126 39.8091 6.24352C41.5966 6.52895 43.1435 7.64388 43.9794 9.24942C44.1912 9.65581 44.3424 10.1105 44.516 10.6323L44.7996 11.4836C44.8477 11.6276 44.8614 11.6684 44.8731 11.7006C45.3181 12.931 46.472 13.7628 47.7802 13.796C47.8145 13.7968 47.8567 13.797 48.0092 13.797H55.6342C56.6873 13.797 57.5405 14.6504 57.5405 15.7032C57.5405 16.756 56.6873 17.6095 55.6342 17.6095H12.4258C11.373 17.6095 10.5195 16.756 10.5195 15.7032C10.5195 14.6504 11.373 13.797 12.4258 13.797H20.051C20.2036 13.797 20.2457 13.7968 20.2801 13.796C21.5882 13.7628 22.7422 12.9311 23.1873 11.7006C23.199 11.6683 23.2124 11.6283 23.2607 11.4836L23.5444 10.6324C23.7179 10.1105 23.8692 9.65581 24.0808 9.24942C24.9169 7.64388 26.4637 6.52895 28.2513 6.24352C28.7038 6.17126 29.1829 6.17157 29.7329 6.17192ZM26.4257 13.797C26.5566 13.5402 26.6726 13.2734 26.7724 12.9975C26.8027 12.9137 26.8325 12.8245 26.8706 12.7099L27.1243 11.9489C27.356 11.2537 27.4094 11.1119 27.4623 11.0103C27.741 10.4751 28.2566 10.1035 28.8525 10.0083C28.9657 9.99024 29.117 9.98448 29.8498 9.98448H38.2106C38.9434 9.98448 39.0946 9.99024 39.208 10.0083C39.8037 10.1035 40.3194 10.4751 40.598 11.0103C40.6509 11.1119 40.7042 11.2537 40.936 11.9489L41.1894 12.7094L41.2881 12.9975C41.3877 13.2734 41.5038 13.5402 41.6347 13.797H26.4257Z" fill="white"/>
<path fill-rule="evenodd" clip-rule="evenodd" d="M17.0051 22.6918C18.0556 22.6218 18.9639 23.4166 19.0339 24.467L20.203 42.0022C20.4313 45.4281 20.5941 47.8117 20.9514 49.6051C21.2979 51.3449 21.7817 52.2657 22.4766 52.9159C23.1715 53.5658 24.1225 53.9874 25.8813 54.2175C27.6946 54.4546 30.0838 54.4584 33.5171 54.4584H35.4828C38.9161 54.4584 41.3053 54.4546 43.1185 54.2175C44.8773 53.9874 45.8284 53.5658 46.5233 52.9159C47.2182 52.2657 47.7021 51.3449 48.0486 49.6051C48.4059 47.8117 48.5686 45.4281 48.7971 42.0022L49.966 24.467C50.0359 23.4166 50.9443 22.6218 51.9948 22.6918C53.0452 22.7618 53.84 23.6702 53.7701 24.7206L52.5921 42.3896C52.3747 45.65 52.1994 48.2834 51.7876 50.3501C51.3596 52.4985 50.6317 54.2932 49.128 55.6998C47.6244 57.1066 45.7852 57.7135 43.6131 57.9977C41.5236 58.2709 38.8843 58.2709 35.6168 58.2709H33.3832C30.1156 58.2709 27.4762 58.2709 25.3868 57.9977C23.2146 57.7135 21.3756 57.1066 19.872 55.6998C18.3683 54.2932 17.6403 52.4985 17.2123 50.3501C16.8006 48.2834 16.6251 45.65 16.4078 42.3896L15.2299 24.7206C15.1598 23.6702 15.9546 22.7618 17.0051 22.6918Z" fill="white"/>
</g>
<defs>
<filter id="filter0_d_224_15392" x="0.519531" y="0.171875" width="67.0205" height="72.0977" filterUnits="userSpaceOnUse" color-interpolation-filters="sRGB">
<feFlood flood-opacity="0" result="BackgroundImageFix"/>
<feColorMatrix in="SourceAlpha" type="matrix" values="0 0 0 0 0 0 0 0 0 0 0 0 0 0 0 0 0 0 127 0" result="hardAlpha"/>
<feOffset dy="4"/>
<feGaussianBlur stdDeviation="5"/>
<feComposite in2="hardAlpha" operator="out"/>
<feColorMatrix type="matrix" values="0 0 0 0 0 0 0 0 0 0 0 0 0 0 0 0 0 0 0.45 0"/>
<feBlend mode="normal" in2="BackgroundImageFix" result="effect1_dropShadow_224_15392"/>
<feBlend mode="normal" in="SourceGraphic" in2="effect1_dropShadow_224_15392" result="shape"/>
</filter>
</defs>
</svg>
