<svg width="20" height="20" viewBox="0 0 20 20" fill="none" xmlns="http://www.w3.org/2000/svg">
<path d="M9.24967 1.04297C6.42002 1.04297 4.23071 3.52299 4.58168 6.33077L4.64781 6.85981C4.74457 7.63394 4.4618 8.40722 3.88846 8.93622C2.70039 10.0326 2.37032 11.7776 3.07586 13.2321L3.16198 13.4096C3.81962 14.7654 5.19404 15.6263 6.7009 15.6263H13.5516C14.8513 15.6263 16.061 14.9623 16.7589 13.8657C17.744 12.3179 17.4831 10.2873 16.1387 9.0388L16.1021 9.0048C15.8241 8.74664 15.6099 8.4353 15.4681 8.09453C15.4102 7.95536 15.3644 7.81132 15.3313 7.66404C15.2555 7.32728 14.9211 7.11569 14.5843 7.19144C14.2476 7.2672 14.036 7.60161 14.1118 7.93837C14.1608 8.15612 14.2284 8.36905 14.314 8.57472C14.5237 9.07847 14.8405 9.53905 15.2515 9.92072L15.2881 9.95472C16.1904 10.7927 16.3656 12.1556 15.7043 13.1946C15.2359 13.9306 14.424 14.3763 13.5516 14.3763H6.7009C5.67292 14.3763 4.7353 13.789 4.28666 12.8641L4.20052 12.6866C3.73546 11.7278 3.95304 10.5776 4.73617 9.85489C5.60597 9.05222 6.03496 7.87918 5.88816 6.70477L5.82202 6.17573C5.56432 4.11402 7.1719 2.29297 9.24967 2.29297H10.6688C11.2831 2.29297 11.854 2.4512 12.3483 2.72643C12.6498 2.89436 13.0304 2.78602 13.1983 2.48444C13.3663 2.18288 13.2579 1.80226 12.9563 1.63433C12.2808 1.25815 11.5013 1.04297 10.6688 1.04297H9.24967Z" fill="black"/>
<path d="M8.15238 17.125C7.94527 16.8489 7.55352 16.793 7.27738 17C7.00124 17.2071 6.94527 17.5989 7.15238 17.875L7.40238 18.2084C8.77738 20.0417 11.5274 20.0417 12.9024 18.2084L13.1524 17.875C13.3595 17.5989 13.3035 17.2071 13.0274 17C12.7512 16.793 12.3595 16.8489 12.1524 17.125L11.9024 17.4584C11.0274 18.625 9.27738 18.625 8.40238 17.4584L8.15238 17.125Z" fill="black"/>
<path d="M15.9857 5.0026C15.9857 5.92308 15.2394 6.66927 14.319 6.66927C13.3985 6.66927 12.6523 5.92308 12.6523 5.0026C12.6523 4.08213 13.3985 3.33594 14.319 3.33594C15.2394 3.33594 15.9857 4.08213 15.9857 5.0026Z" fill="black"/>
</svg>
