<svg width="40" height="40" viewBox="0 0 40 40" fill="none" xmlns="http://www.w3.org/2000/svg">
<path d="M15.0001 29.5835C14.3167 29.5835 13.7501 29.0168 13.7501 28.3335V21.3501L12.5501 22.5501C12.0667 23.0335 11.2667 23.0335 10.7834 22.5501C10.3001 22.0668 10.3001 21.2668 10.7834 20.7835L14.1167 17.4501C14.4667 17.1001 15.0167 16.9835 15.4834 17.1835C15.9501 17.3668 16.2501 17.8335 16.2501 18.3335V28.3335C16.2501 29.0168 15.6834 29.5835 15.0001 29.5835Z" fill="#BBBBBB"/>
<path d="M18.335 22.9151C18.0183 22.9151 17.7016 22.7984 17.4516 22.5484L14.1184 19.2151C13.635 18.7318 13.635 17.9318 14.1184 17.4484C14.6017 16.9651 15.4017 16.9651 15.885 17.4484L19.2183 20.7818C19.7016 21.2651 19.7016 22.0651 19.2183 22.5484C18.9683 22.7984 18.6516 22.9151 18.335 22.9151Z" fill="#BBBBBB"/>
<path d="M25.0007 37.9154H15.0007C5.95065 37.9154 2.08398 34.0487 2.08398 24.9987V14.9987C2.08398 5.9487 5.95065 2.08203 15.0007 2.08203H23.334C24.0173 2.08203 24.584 2.6487 24.584 3.33203C24.584 4.01536 24.0173 4.58203 23.334 4.58203H15.0007C7.31732 4.58203 4.58398 7.31536 4.58398 14.9987V24.9987C4.58398 32.682 7.31732 35.4154 15.0007 35.4154H25.0007C32.684 35.4154 35.4173 32.682 35.4173 24.9987V16.6654C35.4173 15.982 35.984 15.4154 36.6673 15.4154C37.3507 15.4154 37.9173 15.982 37.9173 16.6654V24.9987C37.9173 34.0487 34.0507 37.9154 25.0007 37.9154Z" fill="#BBBBBB"/>
<path d="M36.6673 17.9129H30.0007C24.3007 17.9129 22.084 15.6962 22.084 9.99624V3.32957C22.084 2.82957 22.384 2.3629 22.8507 2.17957C23.3173 1.97957 23.8507 2.09624 24.2173 2.44624L37.5507 15.7796C37.9007 16.1296 38.0173 16.6796 37.8173 17.1463C37.6173 17.6129 37.1673 17.9129 36.6673 17.9129ZM24.584 6.34624V9.99624C24.584 14.2962 25.7007 15.4129 30.0007 15.4129H33.6507L24.584 6.34624Z" fill="#BBBBBB"/>
</svg>
